<svg width="30" height="30" viewBox="0 0 30 30" fill="none" xmlns="http://www.w3.org/2000/svg">
<path d="M22.1035 1.9502C23.0434 1.9502 23.9753 2.14446 24.8457 2.52344C25.6074 2.85515 26.3104 3.32277 26.9229 3.90625L27.1797 4.16406C27.8497 4.86798 28.3836 5.70555 28.748 6.62988C29.1124 7.55424 29.2998 8.5464 29.2998 9.54883C29.2998 10.5513 29.1125 11.5434 28.748 12.4678C28.4292 13.2765 27.9807 14.0186 27.4248 14.6631L27.1797 14.9336L25.6582 16.5322L14.999 27.7344L4.34082 16.5322L2.81934 14.9336C1.46596 13.5111 0.700231 11.5747 0.700195 9.54883C0.700195 7.52298 1.46601 5.58655 2.81934 4.16406C4.17173 2.74273 5.99871 1.95117 7.89551 1.95117C9.79224 1.9512 11.6183 2.7428 12.9707 4.16406H12.9717L14.4922 5.7627C14.6243 5.90156 14.8083 5.98047 15 5.98047C15.1915 5.98036 15.3748 5.90146 15.5068 5.7627L17.0283 4.16406C17.698 3.45993 18.4909 2.90254 19.3613 2.52344C20.2317 2.14442 21.1636 1.95024 22.1035 1.9502Z" stroke="black" stroke-width="1.4" stroke-linecap="round" stroke-linejoin="round"/>
</svg>
